Coordinates
version=1
nRows=12
nColumns=33
inDegrees=yes

Units are S.I. units (second, meters, Newtons, ...)
Angles are in degrees.

endheader
time	ground_thorax_rot_x	ground_thorax_rot_y	ground_thorax_rot_z	ground_thorax_tx	ground_thorax_ty	ground_thorax_tz	clav_prot_r	clav_elev_r	scapula_abduction_r	scapula_elevation_r	scapula_upward_rot_r	scapula_winging_r	shoulder_elv_r	plane_of_elev_r	axial_rot_r	elbow_flexion_r	pro_sup_r	wrist_flex_r	wrist_dev_r	clav_prot_l	clav_elev_l	scapula_abduction_l	scapula_elevation_l	scapula_upward_rot_l	scapula_winging_l	shoulder_elv_l	plane_of_elev_l	axial_rot_l	elbow_flexion_l	pro_sup_l	wrist_flex_l	wrist_dev_l
      6.50000000	    -40.83689822	     -7.61624898	      6.82538393	   -181.42253568	    861.56829926	     -9.57579898	      9.88279710	    -45.00000000	     34.99121603	    -45.00000000	    -42.70461294	   1701.89174910	  -3530.11912590	     30.67244261	     83.30343051	   1455.34310152	     45.65016989	     18.61143371	      5.49365301	     14.97688999	     38.34505988	    -36.98130225	    -45.00000000	    -45.00000000	    443.90405714	  -2258.02065931	    140.76404789	    156.22938213	    732.61473341	   -312.71530586	      5.79934508	    -22.02728359
      6.51000000	    -40.92055184	     -7.27643776	      6.47519688	   -180.39822460	    863.46482530	     -9.56641349	      9.80116050	    -45.00000000	     35.00807221	    -45.00000000	    -42.01899566	   1701.85128856	  -3529.95371180	     30.83684055	     83.36082750	   1455.65644506	     47.27178981	     18.55803943	      5.31101167	     15.30900437	     38.46375371	    -37.41196007	    -45.00000000	    -45.00000000	    444.13638393	  -2257.85029675	    140.52828130	    156.43126133	    732.70138504	   -311.79656207	      5.71790065	    -22.07585408
      6.52000000	    -40.93885963	     -7.06599232	      6.21812805	   -179.28859163	    865.45856253	     -9.57315638	      9.64944112	    -45.00000000	     35.28300932	    -45.00000000	    -41.25741135	   1701.82448319	  -3529.81220916	     30.83805787	     83.36780328	   1455.88817850	     49.19130422	     18.49140253	      5.15473010	     15.63824953	     38.58063119	    -37.76410466	    -45.00000000	    -45.00000000	    444.39849571	  -2257.66536550	    140.33999362	    156.69060586	    732.86797661	   -310.83409869	      5.53987823	    -22.06058634
      6.53000000	    -40.90128840	     -6.93921586	      5.93728261	   -178.07680228	    867.54438084	     -9.58691780	      9.85561032	    -45.00000000	     35.66082649	    -45.00000000	    -40.52548525	   1701.65131898	  -3529.61772881	     31.02352897	     83.28532914	   1456.19927207	     50.78682687	     18.44417873	      4.98187146	     15.27934900	     38.45370739	    -37.91865240	    -45.00000000	    -45.00000000	    444.44759103	  -2257.40623435	    140.20619744	    157.27488018	    733.01146795	   -310.10656861	      5.42004805	    -22.10613917
      6.54000000	    -40.89483180	     -6.73626957	      5.63000012	   -176.72867872	    869.70439632	     -9.61031219	      9.76657504	    -45.00000000	     35.96001196	    -45.00000000	    -39.63554650	   1701.58140217	  -3529.45353190	     31.07554825	     83.20256357	   1456.42543168	     52.48068940	     18.42160269	      4.86238492	     15.45664557	     38.53764826	    -38.18575540	    -45.00000000	    -45.00000000	    444.61512076	  -2257.16544611	    140.04942559	    157.68974978	    733.18033021	   -309.38682854	      5.26225309	    -22.10904780
      6.55000000	    -40.84284665	     -6.57901320	      5.39028054	   -175.25273446	    871.91158290	     -9.63147813	      9.67448976	    -45.00000000	     36.32048881	    -45.00000000	    -38.68096243	   1701.56013580	  -3529.30499749	     31.07538751	     83.04152328	   1456.57002742	     54.31048693	     18.40000051	      4.76473131	     15.66377049	     38.59561127	    -38.46381213	    -45.00000000	    -45.00000000	    444.81625774	  -2256.95871660	    139.85627864	    158.13122047	    733.31912456	   -308.64881192	      5.09247599	    -22.08389107
      6.56000000	    -40.77281793	     -6.36531600	      5.12469820	   -173.63809978	    874.17166372	     -9.64278422	      9.71501271	    -45.00000000	     36.70647052	    -45.00000000	    -37.79326951	   1701.46043416	  -3529.11214814	     31.14846792	     82.86287181	   1456.76136117	     56.06338416	     18.40717390	      4.66272546	     15.63835309	     38.60464597	    -38.78571447	    -45.00000000	    -45.00000000	    444.94887319	  -2256.72316143	    139.69670822	    158.66487451	    733.44914964	   -307.97119608	      4.93601872	    -22.07161956
      6.57000000	    -40.70151437	     -6.19479038	      4.86224802	   -171.91298150	    876.47180706	     -9.62901419	      9.69395525	    -45.00000000	     37.08484057	    -45.00000000	    -36.82184427	   1701.35868216	  -3528.90044899	     31.24328833	     82.67962838	   1456.98031755	     57.77846362	     18.41075186	      4.54040683	     15.65136980	     38.57129714	    -39.05503442	    -45.00000000	    -45.00000000	    445.11306503	  -2256.47869520	    139.51303948	    159.23660903	    733.61778961	   -307.33579970	      4.75670454	    -22.04239466
      6.58000000	    -40.62951092	     -6.03729400	      4.62868812	   -170.07988086	    878.79319388	     -9.59269880	      9.52180210	    -45.00000000	     37.47489997	    -45.00000000	    -35.65797298	   1701.31186004	  -3528.67603248	     31.20417096	     82.57297789	   1457.13793855	     59.67689467	     18.41357044	      4.43088563	     15.92483022	     38.65808509	    -39.35449756	    -45.00000000	    -45.00000000	    445.22803498	  -2256.24234842	    139.40723466	    159.86884733	    733.77723208	   -306.65540389	      4.53825484	    -21.96805520
      6.59000000	    -40.54487066	     -5.84513732	      4.36100893	   -168.14414536	    881.11279777	     -9.53813595	      9.70680251	    -45.00000000	     37.87737857	    -45.00000000	    -34.78559711	   1701.15225794	  -3528.52305677	     31.41296131	     82.30311444	   1457.28533431	     61.21384845	     18.38363465	      4.30764035	     15.56946522	     38.51199567	    -39.63598403	    -45.00000000	    -45.00000000	    445.47627507	  -2255.97442872	    139.07495006	    160.47489618	    733.85354075	   -306.11260775	      4.42528830	    -21.94957431
      6.60000000	    -40.48312436	     -5.75263067	      4.19945746	   -166.10623220	    883.41100651	     -9.46903441	      9.64262456	    -45.00000000	     38.28195832	    -45.00000000	    -33.79520777	   1701.11112856	  -3528.30468358	     31.42638842	     82.01823864	   1457.44475285	     62.70529297	     18.38357051	      4.19281423	     15.45671957	     38.56588600	    -39.85232180	    -45.00000000	    -45.00000000	    445.58353290	  -2255.62822933	    138.92752130	    161.05252488	    733.98438742	   -305.62861213	      4.25697931	    -21.89155234
      6.61000000	    -40.40881804	     -5.48589997	      3.91222902	   -163.96664186	    885.66542654	     -9.38766642	      9.43448231	    -45.00000000	     38.71958663	    -45.00000000	    -32.39778747	   1701.05536800	  -3528.06361257	     31.34677322	     81.93568596	   1457.59789016	     64.41377104	     18.42883390	      4.11466451	     15.96239273	     38.73195681	    -40.33845874	    -45.00000000	    -45.00000000	    445.78921010	  -2255.45589817	    138.76220011	    161.73222994	    734.12366811	   -305.12957708	      4.04287536	    -21.75820163
